<svg width="22" height="16" viewBox="0 0 22 16" fill="none" xmlns="http://www.w3.org/2000/svg">
<path d="M20.7345 0.492987C20.5397 0.498663 20.3548 0.579918 20.2189 0.719549L7.24914 13.6893L1.77941 8.21955C1.7103 8.14757 1.62753 8.09011 1.53593 8.05052C1.44434 8.01093 1.34576 7.99002 1.24598 7.989C1.1462 7.98799 1.04722 8.00689 0.954841 8.04461C0.862459 8.08233 0.778532 8.1381 0.707973 8.20866C0.637415 8.27921 0.581644 8.36314 0.543927 8.45552C0.50621 8.54791 0.487306 8.64688 0.48832 8.74666C0.489335 8.84644 0.510248 8.94502 0.549835 9.03661C0.589423 9.12821 0.646888 9.21099 0.718867 9.2801L6.71887 15.2801C6.85952 15.4207 7.05026 15.4997 7.24914 15.4997C7.44802 15.4997 7.63876 15.4207 7.77941 15.2801L21.2794 1.7801C21.3876 1.67472 21.4615 1.53913 21.4913 1.39108C21.5212 1.24303 21.5057 1.0894 21.4468 0.950321C21.3879 0.811237 21.2884 0.693169 21.1613 0.611569C21.0342 0.529969 20.8855 0.488639 20.7345 0.492987Z" fill="black"/>
</svg>
