<svg width="11" height="13" viewBox="0 0 11 13" fill="none" xmlns="http://www.w3.org/2000/svg">
<path d="M2.99967 1L7.39967 1C9.01971 1 10.333 2.19391 10.333 3.66667V9" stroke="#9C9C9C"/>
<path d="M8.5 6.24436C8.5 5.39752 8.49909 4.80871 8.4428 4.35806C8.38823 3.92118 8.28781 3.67664 8.13062 3.49175C8.03379 3.37785 7.91968 3.27455 7.79058 3.18515C7.57172 3.03357 7.27794 2.937 6.77465 2.88579C6.26429 2.83386 5.6012 2.83325 4.66667 2.83325C3.73214 2.83325 3.06905 2.83386 2.55868 2.88579C2.05539 2.937 1.76161 3.03357 1.54275 3.18515C1.41366 3.27455 1.29955 3.37785 1.20271 3.49175C1.04553 3.67664 0.945101 3.92118 0.890532 4.35806C0.834243 4.80871 0.833333 5.39752 0.833333 6.24436V9.08881C0.833333 9.93565 0.834243 10.5245 0.890532 10.9751C0.945101 11.412 1.04553 11.6565 1.20271 11.8414C1.29955 11.9553 1.41366 12.0586 1.54275 12.148C1.76161 12.2996 2.05539 12.3962 2.55868 12.4474C3.06905 12.4993 3.73214 12.4999 4.66667 12.4999C5.6012 12.4999 6.26429 12.4993 6.77465 12.4474C7.27794 12.3962 7.57172 12.2996 7.79058 12.148L8.07525 12.5591L7.79058 12.148C7.91968 12.0586 8.03379 11.9553 8.13062 11.8414L8.51156 12.1653L8.13062 11.8414C8.28781 11.6565 8.38823 11.412 8.4428 10.9751C8.49909 10.5245 8.5 9.93565 8.5 9.08881V6.24436Z" stroke="#9C9C9C"/>
</svg>
