<svg width="48" height="48" viewBox="0 0 48 48" fill="none" xmlns="http://www.w3.org/2000/svg">
<rect width="48" height="48" rx="24" fill="#E6E9FD"/>
<path d="M32.3 17.2848C32.29 17.2748 32.275 17.2648 32.26 17.2498C31.065 16.2898 29.465 15.7998 28.335 15.5648C27.22 15.3298 26.105 15.9648 25.745 17.0398C25.74 17.0598 25.73 17.0748 25.725 17.0948C27.6 17.2848 29.275 17.7998 30.635 18.6048C30.99 18.8148 31.105 19.2748 30.895 19.6348C30.755 19.8698 30.505 19.9998 30.25 19.9998C30.12 19.9998 29.985 19.9648 29.865 19.8948C28.335 18.9848 26.305 18.5048 24 18.5048C21.695 18.5048 19.665 18.9848 18.135 19.8948C17.775 20.1048 17.315 19.9898 17.105 19.6348C16.895 19.2748 17.01 18.8148 17.365 18.6048C18.725 17.7998 20.4 17.2848 22.275 17.0948C22.27 17.0748 22.26 17.0598 22.255 17.0398C21.895 15.9648 20.78 15.3298 19.665 15.5648C18.535 15.7998 16.935 16.2898 15.74 17.2498C15.725 17.2648 15.71 17.2748 15.7 17.2848C14.59 18.3148 12.54 23.5548 12.54 28.3148C12.54 28.4448 12.57 28.5698 12.635 28.6848C13.855 30.8298 16.73 31.6148 17.915 31.8498C18.06 31.8798 18.205 31.8948 18.35 31.8948C19.06 31.8948 19.745 31.5548 20.17 30.9648L20.43 30.6098C17.855 29.9998 16.535 28.8998 16.46 28.8348C16.145 28.5648 16.105 28.0948 16.375 27.7798C16.645 27.4648 17.115 27.4248 17.43 27.6898C17.47 27.7248 19.675 29.5098 24 29.5098C28.345 29.5098 30.55 27.7098 30.57 27.6898C30.885 27.4248 31.36 27.4648 31.625 27.7848C31.89 28.0998 31.855 28.5698 31.54 28.8348C31.465 28.8998 30.145 29.9998 27.57 30.6098L27.83 30.9648C28.255 31.5548 28.94 31.8948 29.65 31.8948C29.795 31.8948 29.94 31.8798 30.085 31.8498C31.27 31.6148 34.145 30.8298 35.365 28.6848C35.43 28.5698 35.46 28.4448 35.46 28.3148C35.46 23.5548 33.41 18.3148 32.3 17.2848ZM20.765 26.9598C19.81 26.9598 19.035 26.0748 19.035 24.9798C19.035 23.8848 19.81 22.9998 20.765 22.9998C21.725 22.9998 22.5 23.8848 22.5 24.9798C22.5 26.0748 21.725 26.9598 20.765 26.9598ZM27.22 26.9998C26.255 26.9998 25.47 26.1048 25.47 24.9998C25.47 23.8948 26.255 22.9998 27.22 22.9998C28.19 22.9998 28.97 23.8948 28.97 24.9998C28.97 26.1048 28.19 26.9998 27.22 26.9998Z" fill="#7E87E3"/>
</svg>
