<svg width="48" height="48" viewBox="0 0 48 48" fill="none" xmlns="http://www.w3.org/2000/svg">
<rect width="48" height="48" rx="24" fill="#E6E9FD"/>
<path d="M30.25 15H17.75C16.234 15 15 16.234 15 17.75V30.25C15 31.766 16.234 33 17.75 33H30.25C31.766 33 33 31.766 33 30.25V17.75C33 16.234 31.766 15 30.25 15ZM21 29C21 29.2765 20.7765 29.5 20.5 29.5H19C18.7235 29.5 18.5 29.2765 18.5 29V22.5C18.5 22.2235 18.7235 22 19 22H20.5C20.7765 22 21 22.2235 21 22.5V29ZM19.75 21C19.0595 21 18.5 20.4405 18.5 19.75C18.5 19.0595 19.0595 18.5 19.75 18.5C20.4405 18.5 21 19.0595 21 19.75C21 20.4405 20.4405 21 19.75 21ZM29.5 29C29.5 29.2765 29.2765 29.5 29 29.5H27.5C27.2235 29.5 27 29.2765 27 29V25.25C27 24.5605 26.4395 24 25.75 24C25.0605 24 24.5 24.5605 24.5 25.25V29C24.5 29.2765 24.2765 29.5 24 29.5H22.5C22.2235 29.5 22 29.2765 22 29V22.5C22 22.2235 22.2235 22 22.5 22H24C24.2765 22 24.5 22.2235 24.5 22.5V22.7705C25.0315 22.293 25.731 22 26.5 22C28.1545 22 29.5 23.3455 29.5 25V29Z" fill="#7E87E3"/>
</svg>
