<svg width="529" height="529" viewBox="0 0 529 529" fill="none" xmlns="http://www.w3.org/2000/svg">
<g clip-path="url(#clip0_3897_35855)">
<path d="M447.06 189.729L450.476 196.789C451.422 198.744 451.394 201.149 450.178 203.359C450.012 203.66 449.828 203.951 449.627 204.23L446.211 197.17C446.412 196.891 446.596 196.6 446.762 196.299C447.978 194.088 448.006 191.684 447.06 189.729Z" fill="#3658C1"/>
<path d="M449.627 204.442C449.587 204.443 449.549 204.431 449.515 204.41C449.481 204.389 449.454 204.359 449.437 204.323L446.021 197.263C446.005 197.228 445.997 197.19 446.001 197.152C446.004 197.114 446.018 197.078 446.04 197.047C446.236 196.775 446.416 196.491 446.577 196.197C447.719 194.123 447.826 191.8 446.871 189.825L446.87 189.821C446.858 189.796 446.851 189.769 446.849 189.741C446.848 189.714 446.851 189.686 446.861 189.66C446.87 189.633 446.884 189.609 446.902 189.589C446.921 189.568 446.943 189.551 446.968 189.539C446.993 189.527 447.02 189.52 447.048 189.518C447.075 189.516 447.103 189.52 447.129 189.529C447.156 189.538 447.18 189.553 447.2 189.571C447.221 189.59 447.238 189.612 447.25 189.637L450.666 196.697C451.683 198.799 451.572 201.265 450.363 203.462C450.193 203.771 450.005 204.069 449.798 204.355C449.779 204.382 449.753 204.404 449.723 204.419C449.694 204.435 449.661 204.442 449.627 204.442ZM446.456 197.191L449.659 203.812C449.778 203.632 449.889 203.447 449.993 203.257C451.136 201.182 451.242 198.858 450.286 196.881L447.906 191.963C448.053 193.44 447.731 194.977 446.947 196.401C446.798 196.673 446.634 196.937 446.456 197.191Z" fill="#111111"/>
<path d="M443.436 186.384C447.39 188.01 448.88 192.45 446.761 196.3C446.595 196.601 446.411 196.892 446.21 197.171C444.265 195.655 442.055 194.364 439.6 193.355C437.144 192.345 434.592 191.677 432.004 191.329C432.129 191.014 432.274 190.707 432.438 190.41C434.556 186.56 439.48 184.757 443.436 186.384Z" fill="#B0C3FF"/>
<path d="M446.21 197.382C446.163 197.382 446.117 197.367 446.08 197.338C444.117 195.807 441.909 194.533 439.519 193.55C437.129 192.567 434.591 191.89 431.976 191.539C431.944 191.534 431.914 191.523 431.887 191.505C431.86 191.487 431.838 191.464 431.822 191.436C431.806 191.408 431.796 191.377 431.794 191.345C431.791 191.313 431.796 191.281 431.808 191.251C431.935 190.931 432.085 190.614 432.253 190.307C434.419 186.372 439.471 184.524 443.516 186.188C445.45 186.983 446.88 188.459 447.544 190.345C448.231 192.3 448.019 194.451 446.946 196.401C446.776 196.71 446.587 197.008 446.381 197.294C446.362 197.322 446.336 197.344 446.306 197.359C446.276 197.374 446.243 197.382 446.21 197.382L446.21 197.382ZM432.305 191.157C434.859 191.523 437.339 192.196 439.68 193.159C442.034 194.127 444.215 195.374 446.164 196.868C446.312 196.651 446.449 196.427 446.576 196.197C447.59 194.354 447.792 192.326 447.145 190.486C446.522 188.715 445.177 187.328 443.356 186.579C439.503 184.995 434.688 186.758 432.623 190.511C432.507 190.722 432.4 190.939 432.305 191.157H432.305Z" fill="#111111"/>
<path d="M392.996 258.11L369.904 248.613C368.954 248.223 368.29 247.566 367.914 246.789L371.33 253.849C371.706 254.626 372.37 255.283 373.32 255.674L396.412 265.17L392.996 258.11V258.11Z" fill="#3658C1"/>
<path d="M396.412 265.381C396.385 265.381 396.357 265.376 396.332 265.365L373.239 255.869C372.286 255.477 371.56 254.81 371.14 253.941L367.724 246.881C367.712 246.856 367.705 246.829 367.703 246.801C367.702 246.773 367.706 246.746 367.715 246.719C367.724 246.693 367.738 246.669 367.757 246.648C367.775 246.627 367.797 246.61 367.822 246.598C367.847 246.586 367.874 246.579 367.902 246.578C367.93 246.576 367.957 246.58 367.984 246.589C368.01 246.598 368.034 246.612 368.055 246.631C368.075 246.649 368.092 246.671 368.104 246.696L368.106 246.699C368.481 247.472 369.13 248.066 369.984 248.417L393.077 257.914C393.125 257.933 393.164 257.97 393.186 258.017L396.602 265.077C396.618 265.109 396.625 265.145 396.623 265.181C396.621 265.217 396.61 265.251 396.591 265.282C396.572 265.312 396.546 265.337 396.514 265.354C396.483 265.372 396.448 265.381 396.412 265.381V265.381ZM368.863 248.264L371.52 253.757C371.895 254.531 372.545 255.126 373.4 255.477L395.981 264.764L392.842 258.274L369.824 248.808C369.481 248.669 369.158 248.486 368.863 248.264Z" fill="#111111"/>
<path d="M410.889 265.468C410.885 267.157 410.446 268.907 409.526 270.578C406.53 276.023 399.566 278.572 393.973 276.272C388.38 273.972 386.274 267.692 389.27 262.248C390.189 260.577 391.483 259.179 392.996 258.109L410.889 265.468Z" fill="white"/>
<path d="M398.324 277.327C396.816 277.327 395.311 277.051 393.894 276.468C391.182 275.353 389.177 273.284 388.247 270.64C387.283 267.898 387.581 264.882 389.086 262.146C389.988 260.507 391.299 259.051 392.876 257.937C392.935 257.895 393.011 257.887 393.078 257.914L410.971 265.272C411.01 265.288 411.043 265.316 411.066 265.351C411.089 265.386 411.102 265.427 411.102 265.469C411.097 267.236 410.616 269.038 409.712 270.681C407.429 274.83 402.862 277.327 398.324 277.327ZM393.025 258.35C391.542 259.418 390.309 260.8 389.456 262.351C388.009 264.979 387.722 267.873 388.646 270.5C389.535 273.028 391.456 275.009 394.054 276.077C399.543 278.335 406.401 275.822 409.343 270.477C410.188 268.94 410.649 267.26 410.678 265.61L393.025 258.35L393.025 258.35Z" fill="#111111"/>
<path d="M410.888 265.468L414.304 272.528C414.299 274.218 413.86 275.968 412.94 277.639C409.945 283.083 402.98 285.633 397.387 283.333C395.005 282.353 393.256 280.652 392.264 278.601L388.848 271.541C389.84 273.592 391.589 275.293 393.971 276.272C399.564 278.572 406.529 276.023 409.525 270.579C410.444 268.907 410.883 267.157 410.888 265.468Z" fill="#3658C1"/>
<path d="M401.737 284.387C400.229 284.387 398.724 284.112 397.307 283.529C394.943 282.557 393.134 280.885 392.074 278.693L388.658 271.633C388.646 271.608 388.639 271.581 388.637 271.553C388.635 271.526 388.639 271.498 388.648 271.472C388.658 271.445 388.672 271.421 388.69 271.401C388.709 271.38 388.731 271.363 388.756 271.351C388.781 271.339 388.808 271.332 388.836 271.33C388.863 271.328 388.891 271.332 388.917 271.341C388.943 271.35 388.968 271.365 388.988 271.383C389.009 271.402 389.026 271.424 389.038 271.449C390.052 273.545 391.786 275.145 394.052 276.077C399.541 278.335 406.399 275.822 409.34 270.477C410.21 268.896 410.672 267.164 410.677 265.468C410.677 265.42 410.693 265.374 410.723 265.336C410.753 265.299 410.795 265.273 410.841 265.262C410.888 265.251 410.937 265.257 410.98 265.278C411.023 265.298 411.057 265.333 411.078 265.376L414.494 272.436C414.508 272.465 414.515 272.497 414.515 272.529C414.51 274.296 414.03 276.099 413.126 277.741C410.843 281.89 406.276 284.387 401.737 284.387ZM390.269 273.993L392.454 278.509C393.468 280.605 395.202 282.206 397.467 283.137C402.956 285.394 409.815 282.882 412.756 277.537C413.617 275.971 414.079 274.257 414.092 272.576L411.061 266.311C410.931 267.803 410.471 269.299 409.71 270.681C406.668 276.208 399.572 278.804 393.891 276.468C392.469 275.883 391.247 275.045 390.269 273.992L390.269 273.993Z" fill="#111111"/>
<path d="M457.02 213.345L453.604 206.284C457.259 213.839 457.154 223.13 452.454 231.67L443.459 248.018C440.059 254.196 440.026 263.805 440.536 270.481C440.782 273.701 437.072 276.235 433.986 274.966L410.891 265.468L414.307 272.528L437.402 282.026C440.488 283.295 444.198 280.761 443.952 277.541C443.442 270.865 443.475 261.256 446.874 255.078L455.87 238.73C460.57 230.19 460.675 220.899 457.02 213.345Z" fill="url(#paint0_linear_3897_35855)"/>
<path d="M439.097 282.567C438.486 282.567 437.881 282.453 437.317 282.221L414.222 272.724C414.174 272.704 414.135 272.667 414.113 272.62L410.697 265.56C410.678 265.522 410.672 265.478 410.678 265.436C410.685 265.394 410.704 265.354 410.733 265.323C410.762 265.292 410.8 265.27 410.842 265.261C410.884 265.252 410.927 265.256 410.967 265.272L434.062 274.77C435.478 275.352 437.181 275.113 438.508 274.147C439.749 273.243 440.427 271.878 440.322 270.497C439.794 263.597 439.878 254.079 443.27 247.916L452.266 231.568C456.774 223.374 457.192 214.192 453.41 206.376C453.398 206.351 453.391 206.324 453.389 206.296C453.388 206.268 453.392 206.241 453.401 206.214C453.41 206.188 453.424 206.164 453.442 206.143C453.461 206.122 453.483 206.106 453.508 206.093C453.533 206.081 453.56 206.074 453.588 206.073C453.616 206.071 453.643 206.075 453.67 206.084C453.696 206.093 453.72 206.107 453.741 206.126C453.761 206.144 453.778 206.167 453.79 206.192L457.206 213.252C461.048 221.193 460.627 230.517 456.051 238.832L447.055 255.18C443.714 261.253 443.636 270.683 444.158 277.525C444.275 279.054 443.533 280.559 442.172 281.55C441.253 282.219 440.165 282.567 439.096 282.567L439.097 282.567ZM414.457 272.363L437.478 281.83C438.894 282.413 440.597 282.174 441.924 281.208C443.165 280.303 443.843 278.939 443.737 277.557C443.21 270.658 443.294 261.14 446.685 254.976L455.681 238.628C460.19 230.434 460.607 221.253 456.826 213.437L455.448 210.588C457.347 217.448 456.39 224.949 452.635 231.772L443.639 248.12C440.298 254.192 440.22 263.623 440.742 270.465C440.859 271.994 440.117 273.498 438.756 274.489C437.312 275.541 435.452 275.799 433.901 275.161L411.318 265.874L414.457 272.363H414.457Z" fill="#111111"/>
<path d="M439.6 193.354C442.056 194.364 444.265 195.654 446.211 197.171C456.374 205.093 459.323 219.184 452.452 231.67L443.456 248.018C440.057 254.195 440.024 263.805 440.534 270.481C440.78 273.701 437.07 276.235 433.984 274.965L410.888 265.468L392.996 258.11L369.903 248.613C366.814 247.343 366.747 243.256 369.793 241.389C376.108 237.521 384.709 231.434 388.109 225.257L397.105 208.909C403.975 196.423 418.483 189.511 432.005 191.329C434.593 191.677 437.145 192.345 439.601 193.354L439.6 193.354Z" fill="#B0C3FF"/>
<path d="M435.683 275.507C435.072 275.507 434.468 275.393 433.904 275.161L369.823 248.809C368.393 248.221 367.468 246.98 367.349 245.49C367.215 243.814 368.11 242.174 369.683 241.21C376.156 237.244 384.576 231.24 387.924 225.155L396.92 208.807C403.68 196.522 418.12 189.249 432.033 191.12C434.684 191.476 437.257 192.162 439.681 193.159C442.107 194.157 444.347 195.451 446.341 197.004C456.818 205.172 459.408 219.469 452.638 231.773L443.642 248.121C440.3 254.193 440.222 263.623 440.745 270.465C440.862 271.994 440.119 273.499 438.758 274.49C437.839 275.16 436.752 275.507 435.683 275.507L435.683 275.507ZM427.649 191.251C415.325 191.251 403.269 198.147 397.29 209.011L388.294 225.359C384.901 231.525 376.42 237.578 369.903 241.57C368.466 242.451 367.649 243.94 367.77 245.456C367.878 246.804 368.684 247.884 369.984 248.418L434.064 274.77C435.48 275.352 437.183 275.114 438.51 274.148C439.751 273.243 440.429 271.879 440.323 270.497C439.796 263.598 439.88 254.079 443.272 247.916L452.267 231.568C458.935 219.451 456.391 205.375 446.081 197.338C444.118 195.807 441.91 194.533 439.52 193.55C437.13 192.567 434.592 191.89 431.977 191.539C430.542 191.346 429.096 191.25 427.649 191.251H427.649Z" fill="#111111"/>
</g>
<g clip-path="url(#clip1_3897_35855)">
<path d="M299.754 96.5878C303.484 96.0637 307.438 98.8471 308.586 102.805L398.43 412.671C399.578 416.629 397.484 420.262 393.754 420.787L249.8 441.016C246.06 441.542 242.107 438.759 240.959 434.8L151.115 124.934C149.968 120.976 152.06 117.343 155.8 116.818L299.754 96.5878ZM250.694 120.68C253.503 120.285 255.094 117.524 254.229 114.542C253.364 111.56 250.361 109.447 247.551 109.841L211.29 114.937C208.481 115.332 206.89 118.093 207.755 121.074C208.62 124.055 211.624 126.171 214.433 125.776L250.694 120.68" fill="white"/>
<path d="M248.892 441.291C245.357 441.291 241.836 438.579 240.757 434.86L150.913 124.994C150.314 122.928 150.565 120.824 151.603 119.222C152.066 118.509 152.679 117.906 153.399 117.455C154.119 117.003 154.929 116.714 155.773 116.608L299.726 96.3784C303.55 95.841 307.616 98.6979 308.79 102.747L398.634 412.613C399.233 414.68 398.982 416.785 397.944 418.388C397.482 419.099 396.871 419.701 396.153 420.152C395.434 420.603 394.626 420.891 393.785 420.998L249.831 441.227C249.52 441.27 249.206 441.292 248.892 441.291ZM299.756 96.588L299.785 96.7977L155.831 117.027C155.048 117.126 154.296 117.394 153.627 117.812C152.958 118.231 152.389 118.79 151.958 119.452C150.988 120.951 150.755 122.928 151.32 124.876L241.164 434.742C242.281 438.596 246.143 441.317 249.771 440.807L393.726 420.577C394.507 420.479 395.257 420.212 395.924 419.793C396.592 419.375 397.16 418.817 397.589 418.157C398.56 416.657 398.793 414.679 398.228 412.73L308.384 102.864C307.266 99.0099 303.409 96.2883 299.785 96.7977L299.756 96.588ZM213.75 126.035C211.058 126.035 208.375 123.968 207.553 121.133C207.097 119.561 207.292 117.955 208.087 116.727C208.44 116.183 208.906 115.722 209.454 115.377C210.003 115.031 210.62 114.81 211.263 114.728L247.524 109.632C250.44 109.223 253.541 111.399 254.435 114.484C254.891 116.056 254.696 117.662 253.901 118.891C253.549 119.435 253.082 119.896 252.534 120.241C251.985 120.586 251.368 120.808 250.726 120.89L214.464 125.986C214.228 126.019 213.989 126.035 213.75 126.035ZM248.243 110.005C248.022 110.005 247.801 110.021 247.582 110.051L211.321 115.147C210.738 115.221 210.178 115.421 209.681 115.734C209.184 116.047 208.761 116.464 208.442 116.957C207.713 118.082 207.537 119.562 207.958 121.015C208.797 123.906 211.688 125.947 214.404 125.566L250.666 120.471C251.249 120.396 251.808 120.196 252.306 119.883C252.803 119.571 253.226 119.154 253.545 118.661C254.274 117.535 254.45 116.056 254.028 114.602C253.257 111.945 250.751 110.005 248.243 110.005Z" fill="#111111"/>
<path d="M247.552 109.842C250.361 109.447 253.365 111.563 254.23 114.544C255.094 117.525 253.503 120.286 250.695 120.681L214.433 125.777C211.624 126.171 208.619 124.056 207.755 121.075C206.891 118.094 208.481 115.333 211.29 114.938L247.552 109.842Z" fill="#B0C3FF"/>
<path d="M213.747 126.036C211.055 126.036 208.372 123.968 207.55 121.134C207.095 119.562 207.289 117.956 208.085 116.727C208.437 116.183 208.903 115.723 209.451 115.377C210 115.032 210.617 114.811 211.26 114.728L247.521 109.633C250.437 109.223 253.538 111.4 254.432 114.485C254.888 116.057 254.693 117.663 253.898 118.891C253.546 119.435 253.079 119.896 252.531 120.241C251.982 120.587 251.365 120.808 250.722 120.89L214.461 125.986C214.225 126.019 213.986 126.036 213.747 126.036ZM248.24 110.006C248.019 110.006 247.798 110.021 247.579 110.052L211.318 115.148C210.735 115.222 210.176 115.422 209.679 115.735C209.182 116.047 208.758 116.465 208.439 116.958C207.711 118.083 207.534 119.562 207.956 121.016C208.726 123.673 211.231 125.613 213.74 125.613C213.961 125.613 214.182 125.597 214.401 125.567L250.663 120.471C251.246 120.397 251.805 120.197 252.303 119.884C252.8 119.572 253.223 119.154 253.542 118.661C254.271 117.536 254.447 116.057 254.025 114.603C253.254 111.946 250.749 110.006 248.24 110.006Z" fill="#111111"/>
<path d="M395.345 426.275L251.381 446.506C244.804 447.431 237.822 442.515 235.796 435.526L145.952 125.66C144.565 120.878 145.858 116.365 148.922 113.694L139.373 122.016C136.309 124.686 135.016 129.2 136.403 133.982L226.247 443.848C228.273 450.837 235.255 455.752 241.832 454.828L385.796 434.597C387.751 434.342 389.588 433.52 391.081 432.233L400.63 423.911C399.137 425.198 397.3 426.02 395.345 426.275Z" fill="url(#paint1_linear_3897_35855)"/>
<path d="M240.233 455.151C234.073 455.151 227.93 450.408 226.045 443.907L136.201 134.04C134.839 129.343 136.002 124.674 139.236 121.856L148.785 113.534C148.806 113.515 148.83 113.5 148.857 113.491C148.883 113.481 148.912 113.477 148.94 113.479C148.968 113.48 148.996 113.488 149.021 113.5C149.046 113.512 149.069 113.53 149.087 113.551C149.106 113.572 149.12 113.597 149.129 113.624C149.138 113.651 149.141 113.679 149.139 113.707C149.137 113.735 149.129 113.763 149.116 113.788C149.103 113.813 149.085 113.835 149.063 113.853C145.955 116.562 144.841 121.063 146.157 125.6L236.001 435.467C237.834 441.791 243.8 446.406 249.776 446.406C250.304 446.406 250.831 446.37 251.353 446.297L395.317 426.066C397.23 425.813 399.029 425.008 400.493 423.751C400.535 423.714 400.591 423.695 400.647 423.699C400.703 423.703 400.755 423.729 400.792 423.771C400.829 423.814 400.847 423.869 400.843 423.925C400.839 423.981 400.814 424.033 400.771 424.07L391.222 432.392C389.696 433.703 387.822 434.542 385.827 434.806L241.863 455.037C241.323 455.113 240.778 455.151 240.233 455.151ZM146.89 115.748L139.514 122.175C136.406 124.885 135.292 129.385 136.608 133.923L226.452 443.789C228.447 450.67 235.334 455.527 241.804 454.618L385.768 434.387C387.681 434.134 389.48 433.33 390.944 432.073L398.335 425.632C397.394 426.056 396.398 426.343 395.376 426.485L251.412 446.716C244.742 447.653 237.646 442.66 235.594 435.585L145.75 125.719C144.701 122.101 145.15 118.5 146.89 115.748Z" fill="#111111"/>
<path d="M298.164 91.1002C304.75 90.1746 311.733 95.0903 313.759 102.079L403.603 411.945C405.629 418.934 401.932 425.35 395.347 426.275L251.384 446.506C244.807 447.43 237.825 442.514 235.798 435.526L145.953 125.661C143.927 118.672 147.624 112.256 154.209 111.331L298.164 91.1002ZM398.431 412.672L308.587 102.806C307.439 98.848 303.485 96.0644 299.755 96.5885L155.801 116.818C152.062 117.344 149.969 120.977 151.116 124.935L240.96 434.801C242.108 438.759 246.062 441.543 249.801 441.017L393.755 420.788C397.485 420.263 399.579 416.63 398.431 412.672Z" fill="#B0C3FF"/>
<path d="M249.781 446.83C243.621 446.83 237.478 442.087 235.593 435.586L145.749 125.72C144.704 122.116 145.141 118.448 146.948 115.656C147.751 114.42 148.814 113.373 150.063 112.59C151.312 111.807 152.717 111.305 154.18 111.12L298.133 90.8907C304.809 89.9522 311.91 94.9452 313.961 102.02L403.805 411.886C404.85 415.49 404.413 419.158 402.606 421.949C401.803 423.186 400.74 424.232 399.491 425.016C398.242 425.799 396.837 426.301 395.375 426.485L251.411 446.717C250.871 446.792 250.327 446.83 249.781 446.83ZM298.192 91.3098L154.238 111.54C152.836 111.716 151.489 112.197 150.291 112.948C149.093 113.698 148.074 114.701 147.304 115.886C145.563 118.575 145.144 122.116 146.156 125.602L236 435.468C237.833 441.791 243.799 446.406 249.775 446.407C250.303 446.407 250.83 446.37 251.352 446.297L395.316 426.066C396.718 425.889 398.065 425.409 399.263 424.658C400.461 423.907 401.48 422.904 402.25 421.719C403.991 419.031 404.41 415.49 403.399 412.004L313.555 102.138C311.559 95.2574 304.668 90.3998 298.192 91.3098ZM248.891 441.292C245.356 441.292 241.834 438.579 240.756 434.86L150.912 124.994C150.313 122.928 150.564 120.824 151.601 119.222C152.065 118.51 152.678 117.907 153.398 117.455C154.118 117.004 154.928 116.715 155.772 116.609L299.725 96.379C303.549 95.8418 307.615 98.6984 308.789 102.747L398.633 412.614C399.232 414.681 398.981 416.785 397.943 418.388C397.481 419.1 396.87 419.702 396.151 420.152C395.433 420.603 394.625 420.892 393.784 420.998L249.83 441.227C249.519 441.271 249.205 441.292 248.891 441.292ZM300.666 96.7369C300.371 96.7368 300.076 96.7573 299.784 96.7983L155.83 117.028C155.046 117.126 154.294 117.394 153.625 117.813C152.956 118.231 152.386 118.791 151.956 119.452C150.985 120.951 150.753 122.928 151.317 124.876L241.163 434.742C242.28 438.597 246.142 441.318 249.771 440.808L393.725 420.578C394.506 420.48 395.256 420.212 395.923 419.794C396.591 419.376 397.158 418.818 397.588 418.158C398.559 416.658 398.792 414.68 398.227 412.731L308.382 102.865C307.355 99.3228 304.014 96.7369 300.666 96.7369Z" fill="#111111"/>
</g>
<g clip-path="url(#clip2_3897_35855)">
<path d="M336.636 371.147L274.309 379.914C266.45 381.02 262.037 388.685 264.455 397.034C266.876 405.392 275.21 411.264 283.07 410.159L345.397 401.391C353.257 400.286 357.669 392.62 355.248 384.262C352.829 375.914 344.496 370.041 336.636 371.146" fill="#B0C3FF"/>
<path d="M281.155 410.503C273.815 410.503 266.496 404.846 264.25 397.092C263.006 392.798 263.526 388.429 265.676 385.104C267.599 382.131 270.653 380.214 274.277 379.704L336.604 370.937C344.552 369.819 353.006 375.77 355.448 384.203C356.694 388.502 356.174 392.875 354.023 396.201C352.101 399.173 349.047 401.091 345.424 401.6L283.097 410.368C282.452 410.459 281.803 410.503 281.155 410.503L281.155 410.503ZM336.663 371.356L274.336 380.123C270.835 380.615 267.886 382.466 266.031 385.334C263.948 388.556 263.446 392.799 264.656 396.974C267.044 405.218 275.289 411.038 283.038 409.949L345.365 401.181C348.864 400.689 351.813 398.839 353.667 395.971C355.752 392.748 356.253 388.502 355.042 384.32C352.655 376.082 344.41 370.266 336.663 371.356Z" fill="#111111"/>
<path d="M321.525 325.887L262.449 334.197L265.433 344.499L324.509 336.189L321.525 325.887Z" fill="#3658C1"/>
<path d="M265.43 344.711C265.384 344.711 265.34 344.696 265.303 344.668C265.266 344.641 265.24 344.602 265.227 344.558L262.243 334.256C262.234 334.227 262.232 334.196 262.237 334.166C262.241 334.136 262.252 334.108 262.268 334.082C262.285 334.057 262.306 334.035 262.332 334.019C262.358 334.002 262.386 333.992 262.416 333.988L321.492 325.678C321.543 325.671 321.594 325.682 321.637 325.71C321.679 325.737 321.711 325.78 321.725 325.829L324.709 336.131C324.718 336.16 324.72 336.19 324.715 336.22C324.711 336.25 324.7 336.279 324.684 336.305C324.667 336.33 324.645 336.352 324.62 336.368C324.594 336.384 324.565 336.395 324.535 336.399L265.46 344.709C265.45 344.71 265.44 344.711 265.43 344.711ZM262.717 334.373L265.582 344.265L324.235 336.014L321.37 326.123L262.717 334.373Z" fill="#111111"/>
<path d="M296.523 307.139L227.637 316.829L230.621 327.131L299.507 317.441L296.523 307.139Z" fill="#3658C1"/>
<path d="M230.621 327.342C230.529 327.342 230.445 327.281 230.418 327.189L227.434 316.887C227.426 316.858 227.424 316.827 227.428 316.797C227.432 316.767 227.443 316.739 227.46 316.713C227.476 316.688 227.498 316.666 227.523 316.65C227.549 316.633 227.578 316.623 227.608 316.619L296.494 306.929C296.544 306.922 296.596 306.933 296.638 306.961C296.681 306.988 296.712 307.031 296.726 307.079L299.711 317.382C299.719 317.411 299.721 317.441 299.717 317.471C299.713 317.501 299.702 317.53 299.685 317.556C299.669 317.581 299.647 317.603 299.621 317.619C299.596 317.635 299.567 317.646 299.537 317.65L230.651 327.34C230.641 327.341 230.631 327.342 230.621 327.342ZM227.908 317.004L230.774 326.896L299.237 317.265L296.371 307.374L227.908 317.004Z" fill="#111111"/>
<path d="M343.95 300.467L306.223 305.774L309.207 316.076L346.934 310.769L343.95 300.467Z" fill="#3658C1"/>
<path d="M309.207 316.288C309.161 316.287 309.117 316.272 309.08 316.245C309.044 316.217 309.017 316.179 309.004 316.135L306.02 305.833C306.012 305.804 306.01 305.773 306.014 305.743C306.018 305.713 306.029 305.684 306.046 305.659C306.062 305.633 306.084 305.612 306.109 305.595C306.135 305.579 306.164 305.568 306.194 305.564L343.921 300.257C343.972 300.25 344.023 300.261 344.066 300.289C344.108 300.316 344.14 300.359 344.154 300.408L347.138 310.71C347.146 310.739 347.149 310.769 347.144 310.799C347.14 310.83 347.129 310.858 347.113 310.884C347.096 310.909 347.074 310.931 347.049 310.947C347.023 310.963 346.994 310.974 346.964 310.978L309.237 316.285C309.227 316.287 309.217 316.287 309.207 316.287L309.207 316.288ZM306.494 305.95L309.359 315.841L346.664 310.593L343.799 300.702L306.494 305.949V305.95Z" fill="#111111"/>
<path d="M343.865 265.397L336.623 240.395L322.742 192.475C321.719 188.942 319.008 185.924 315.613 184.553L246.657 156.716C244.949 156.027 243.201 155.808 241.583 156.036C239.965 156.263 238.478 156.937 237.292 158.033L189.221 202.332C186.865 204.512 186.037 208.028 187.06 211.561L208.183 284.483C209.77 289.96 215.233 293.803 220.38 293.079L337.407 276.617C342.564 275.892 345.451 270.874 343.865 265.397Z" fill="#3658C1"/>
<path d="M219.128 293.377C214.288 293.377 209.461 289.65 207.981 284.541L186.859 211.619C185.818 208.025 186.669 204.406 189.079 202.176L237.151 157.877C238.346 156.772 239.869 156.063 241.555 155.826C243.235 155.589 245.027 155.829 246.737 156.519L315.694 184.356C319.13 185.744 321.909 188.832 322.947 192.415L344.07 265.338C344.891 268.175 344.548 271.06 343.129 273.255C341.858 275.22 339.837 276.488 337.438 276.826L220.411 293.288C219.986 293.347 219.557 293.377 219.128 293.377V293.377ZM242.833 156.161C242.421 156.161 242.014 156.188 241.614 156.245C240.013 156.47 238.569 157.142 237.437 158.188L189.366 202.487C187.074 204.607 186.269 208.062 187.265 211.501L208.388 284.424C209.942 289.789 215.308 293.577 220.352 292.868L337.379 276.407C339.655 276.086 341.571 274.886 342.774 273.025C344.127 270.933 344.451 268.174 343.663 265.456L322.541 192.533C321.538 189.072 318.854 186.089 315.535 184.748L246.579 156.912C245.347 156.414 244.072 156.16 242.833 156.16V156.161Z" fill="#111111"/>
<path d="M285.63 156.071L255.545 160.303L231.1 163.742L201.016 167.974L217.16 223.708L261.502 241.604C263.205 242.293 264.951 242.512 266.569 242.285C268.186 242.058 269.676 241.383 270.866 240.286L301.773 211.802L285.63 156.071Z" fill="white"/>
<path d="M265.319 242.583C264.026 242.583 262.699 242.318 261.419 241.799L217.077 223.904C217.048 223.892 217.021 223.873 216.999 223.849C216.978 223.825 216.962 223.797 216.953 223.766L200.809 168.032C200.801 168.003 200.799 167.973 200.803 167.942C200.807 167.912 200.818 167.884 200.835 167.858C200.851 167.833 200.873 167.811 200.898 167.795C200.924 167.779 200.953 167.768 200.983 167.764L285.598 155.861C285.648 155.854 285.699 155.866 285.742 155.893C285.785 155.921 285.816 155.963 285.83 156.012L301.973 211.743C301.995 211.82 301.972 211.903 301.913 211.957L271.006 240.442C269.806 241.547 268.281 242.257 266.595 242.494C266.172 242.553 265.746 242.583 265.319 242.582V242.583ZM217.331 223.55L261.577 241.407C263.215 242.07 264.929 242.301 266.536 242.075C268.136 241.85 269.583 241.178 270.719 240.131L301.53 211.735L285.475 156.306L201.283 168.149L217.331 223.55H217.331Z" fill="#111111"/>
<path d="M322.744 192.475L270.866 240.287C269.676 241.384 268.186 242.058 266.569 242.285C264.951 242.513 263.205 242.294 261.502 241.604L187.062 211.561L208.185 284.483C209.772 289.96 215.235 293.803 220.382 293.079L337.41 276.617C342.566 275.891 345.454 270.874 343.867 265.397L322.744 192.475Z" fill="#B0C3FF"/>
<path d="M219.126 293.377C214.285 293.377 209.459 289.65 207.979 284.542L186.856 211.619C186.845 211.581 186.845 211.541 186.856 211.503C186.867 211.464 186.888 211.43 186.917 211.403C186.947 211.377 186.983 211.359 187.022 211.352C187.061 211.345 187.101 211.349 187.138 211.364L261.578 241.407C263.215 242.07 264.929 242.301 266.536 242.075C268.136 241.85 269.583 241.178 270.719 240.13L322.598 192.319C322.624 192.294 322.657 192.277 322.692 192.269C322.727 192.26 322.763 192.261 322.798 192.27C322.832 192.28 322.864 192.299 322.89 192.324C322.915 192.349 322.934 192.381 322.944 192.415L344.067 265.338C344.889 268.175 344.546 271.06 343.126 273.255C341.855 275.22 339.834 276.488 337.436 276.826L220.408 293.288C219.983 293.347 219.555 293.377 219.126 293.377ZM187.383 211.919L208.385 284.424C209.939 289.79 215.306 293.579 220.349 292.869L337.377 276.407C339.652 276.087 341.568 274.886 342.771 273.026C344.124 270.934 344.448 268.175 343.661 265.456L322.633 192.862L271.006 240.442C269.806 241.548 268.281 242.257 266.595 242.495C264.915 242.731 263.125 242.491 261.419 241.8L187.383 211.919Z" fill="#111111"/>
<path d="M263.53 170.035L229.156 174.87L230.9 180.889L265.273 176.054L263.53 170.035Z" fill="#B0C3FF"/>
<path d="M230.899 181.101C230.853 181.101 230.808 181.086 230.772 181.058C230.735 181.031 230.709 180.992 230.696 180.948L228.952 174.929C228.944 174.9 228.942 174.869 228.946 174.839C228.95 174.809 228.961 174.781 228.978 174.755C228.994 174.73 229.016 174.708 229.042 174.692C229.067 174.675 229.096 174.665 229.126 174.661L263.5 169.825C263.55 169.818 263.601 169.829 263.644 169.857C263.687 169.885 263.718 169.927 263.732 169.976L265.476 175.995C265.484 176.024 265.486 176.055 265.482 176.085C265.478 176.115 265.467 176.144 265.45 176.169C265.434 176.195 265.412 176.216 265.387 176.233C265.361 176.249 265.332 176.26 265.302 176.264L230.929 181.099C230.919 181.1 230.909 181.101 230.899 181.101ZM229.426 175.046L231.051 180.654L265.002 175.879L263.377 170.27L229.426 175.046ZM215.783 191.166C215.729 191.165 215.679 191.144 215.64 191.108C215.602 191.071 215.578 191.022 215.575 190.969C215.571 190.916 215.587 190.864 215.62 190.822C215.654 190.781 215.701 190.753 215.753 190.745L284.778 181.035C284.806 181.031 284.834 181.033 284.861 181.04C284.888 181.047 284.913 181.059 284.935 181.076C284.958 181.092 284.976 181.113 284.99 181.137C285.004 181.161 285.013 181.188 285.017 181.215C285.021 181.243 285.019 181.271 285.013 181.298C285.006 181.325 284.993 181.35 284.977 181.372C284.96 181.394 284.939 181.413 284.915 181.427C284.891 181.441 284.865 181.45 284.837 181.454L215.812 191.164C215.802 191.165 215.792 191.166 215.782 191.166H215.783ZM219.793 205.01C219.74 205.01 219.689 204.989 219.65 204.952C219.612 204.916 219.589 204.866 219.585 204.813C219.581 204.76 219.598 204.708 219.631 204.667C219.664 204.625 219.711 204.598 219.763 204.589L288.789 194.88C288.816 194.876 288.844 194.878 288.871 194.885C288.898 194.891 288.923 194.904 288.945 194.92C288.967 194.937 288.986 194.958 289 194.982C289.014 195.006 289.023 195.032 289.027 195.06C289.031 195.087 289.03 195.115 289.023 195.142C289.016 195.169 289.003 195.194 288.987 195.217C288.97 195.239 288.949 195.257 288.925 195.272C288.901 195.286 288.875 195.295 288.847 195.299L219.822 205.008C219.812 205.01 219.802 205.011 219.792 205.01H219.793ZM223.803 218.855C223.75 218.854 223.699 218.833 223.661 218.797C223.622 218.76 223.599 218.711 223.595 218.658C223.592 218.605 223.608 218.552 223.641 218.511C223.674 218.469 223.721 218.442 223.774 218.434L292.799 208.724C292.854 208.716 292.911 208.731 292.956 208.765C293 208.798 293.03 208.849 293.038 208.904C293.045 208.96 293.031 209.016 292.997 209.061C292.963 209.106 292.913 209.135 292.858 209.143L223.833 218.853C223.823 218.854 223.813 218.855 223.803 218.855H223.803Z" fill="#111111"/>
</g>
<g clip-path="url(#clip3_3897_35855)">
<path d="M115.964 357.537C116.841 352.06 118.473 347.641 119.934 343.929C119.96 343.865 120.001 343.862 120.08 343.874C115.734 354.562 114.722 363.624 117.819 364.115C120.916 364.606 126.95 356.34 131.296 345.653C135.642 334.965 136.654 325.903 133.557 325.412C130.46 324.921 124.426 333.187 120.08 343.875C120.001 343.862 119.96 343.865 119.953 343.881C121.846 339.366 124.302 334.06 128.172 328.935C130.532 325.895 132.681 324.19 134.179 324.428C137.447 324.946 136.379 334.507 131.794 345.783C127.209 357.059 120.843 365.779 117.575 365.261C115.794 364.979 115.301 362.008 115.964 357.537Z" fill="white"/>
<path d="M117.759 365.525C121.232 365.676 127.423 357.178 132.019 345.875C135.783 336.618 137.279 328.144 135.656 325.268C135.306 324.647 134.822 324.284 134.217 324.188C132.259 323.872 129.74 326.517 127.978 328.787C124.091 333.934 121.627 339.257 119.729 343.785L119.726 343.791C119.724 343.798 119.721 343.805 119.719 343.812C119.715 343.821 119.711 343.83 119.707 343.838C118.241 347.564 116.603 351.997 115.723 357.499L115.722 357.502C115.001 362.362 115.645 365.203 117.536 365.503C117.61 365.514 117.685 365.522 117.759 365.525ZM133.963 324.652C134.022 324.654 134.081 324.66 134.14 324.669C134.597 324.742 134.954 325.016 135.232 325.508C136.786 328.263 135.279 336.563 131.567 345.691C127.106 356.662 120.71 365.506 117.612 365.021C116.712 364.878 116.158 363.863 115.986 362.159C116.086 362.615 116.226 363.007 116.406 363.326C116.74 363.918 117.202 364.265 117.78 364.357C117.849 364.368 117.92 364.375 117.992 364.378C121.289 364.522 127.162 356.463 131.521 345.745C135.09 336.967 136.508 328.931 134.968 326.203C134.633 325.61 134.171 325.264 133.594 325.172C132.98 325.073 132.264 325.288 131.479 325.772C132.439 325.007 133.281 324.622 133.963 324.652ZM133.348 325.636C133.406 325.639 133.462 325.645 133.518 325.653C133.947 325.721 134.282 325.979 134.543 326.442C136.015 329.05 134.586 336.912 131.069 345.562C126.843 355.954 120.795 364.344 117.856 363.875C117.427 363.807 117.092 363.549 116.831 363.087C115.359 360.479 116.788 352.617 120.305 343.967C124.451 333.772 130.353 325.506 133.348 325.636Z" fill="#111111"/>
<path d="M119.953 343.882C116.198 353.403 112.992 365.348 119.039 368.18C119.175 368.239 119.319 368.28 119.465 368.304C123.038 368.87 129.998 359.336 135.01 347.008C139.818 335.185 141.088 325.086 138.032 323.781C129.601 320.492 120.915 341.478 119.953 343.882C119.96 343.865 120 343.863 120.079 343.875C124.425 333.188 130.459 324.922 133.556 325.413C136.653 325.904 135.641 334.966 131.295 345.653C126.95 356.341 120.916 364.607 117.818 364.116C114.721 363.625 115.733 354.563 120.079 343.875C120 343.862 119.96 343.865 119.953 343.882Z" fill="white"/>
<path d="M119.67 368.568C123.457 368.733 130.215 359.448 135.236 347.1C140.13 335.064 141.373 324.942 138.128 323.556C129.473 320.179 120.7 341.359 119.727 343.79L119.726 343.791L119.726 343.791C119.726 343.792 119.726 343.793 119.725 343.794C115.933 353.412 112.717 365.488 118.935 368.4C119.168 368.502 119.417 368.559 119.67 368.568ZM136.433 323.687C136.936 323.709 137.441 323.811 137.943 324.008C140.832 325.241 139.419 335.519 134.784 346.916C129.904 358.918 122.917 368.599 119.504 368.062C119.377 368.042 119.253 368.006 119.135 367.955C117.519 367.199 116.099 365.474 115.92 361.812C116.021 362.42 116.182 362.929 116.406 363.326C116.741 363.918 117.203 364.264 117.78 364.356C117.85 364.367 117.92 364.374 117.993 364.377C121.289 364.521 127.163 356.463 131.521 345.745C135.091 336.967 136.508 328.93 134.968 326.202C134.634 325.61 134.172 325.263 133.595 325.171C132.981 325.072 132.265 325.287 131.479 325.772C133.054 324.459 134.739 323.613 136.433 323.687ZM133.348 325.636C133.406 325.639 133.462 325.644 133.518 325.653C133.947 325.721 134.282 325.979 134.543 326.442C136.015 329.049 134.587 336.912 131.07 345.561C126.843 355.954 120.796 364.344 117.857 363.875C117.427 363.807 117.092 363.549 116.831 363.086C115.36 360.478 116.788 352.616 120.305 343.966C124.451 333.771 130.353 325.506 133.348 325.636Z" fill="#111111"/>
<path d="M173.707 342.345C178.936 344.664 183.91 349.167 186.082 354.37C188.568 360.322 188.749 369.949 181.079 377.492C179.109 379.429 175.575 381.95 169.923 382.958C164.704 383.888 159.253 381.766 157.389 381.058C162.926 376.432 173.19 355.613 173.707 342.345Z" fill="#B0C3FF"/>
<path d="M166.361 383.417C167.542 383.468 168.758 383.413 169.966 383.197C175.68 382.179 179.256 379.627 181.25 377.666C189.006 370.037 188.822 360.298 186.307 354.276C184.218 349.272 179.427 344.615 173.806 342.121C173.769 342.105 173.729 342.098 173.69 342.101C173.65 342.104 173.612 342.116 173.578 342.137C173.544 342.158 173.516 342.187 173.496 342.222C173.476 342.256 173.464 342.295 173.463 342.335C172.954 355.394 162.824 376.199 157.232 380.871C157.2 380.898 157.175 380.933 157.16 380.973C157.145 381.013 157.141 381.056 157.148 381.098C157.155 381.14 157.173 381.179 157.2 381.212C157.227 381.245 157.262 381.27 157.302 381.285L157.396 381.321C158.943 381.91 162.458 383.247 166.361 383.417ZM173.934 342.715C179.305 345.192 183.854 349.668 185.857 354.464C188.313 360.345 188.491 369.86 180.908 377.318C178.963 379.231 175.471 381.721 169.881 382.718C165.039 383.581 160.021 381.793 157.855 380.974C163.511 375.817 173.264 355.663 173.934 342.715Z" fill="#111111"/>
<path d="M38.9722 312.126C50.1462 285.465 59.925 272.001 66.1611 265.401C67.8353 263.629 72.9297 258.237 77.8132 257.434C83.1854 256.551 85.4941 260.403 86.2371 262.1C89.5371 269.637 86.9214 283.352 85.6436 288.899C84.4263 294.183 80.7217 310.263 69.9908 332.624C65.3753 342.241 57.9495 355.817 48.785 365.876C44.5342 370.542 38.3106 375.643 32.8015 373.444L32.7701 373.431C31.0373 372.608 25.7648 370.104 27.4271 353.665C29.0933 337.188 36.271 318.978 38.9722 312.126Z" fill="#3658C1"/>
<path d="M35.2194 374.205C40.1577 374.42 45.2941 370.072 48.9669 366.04C58.1514 355.96 65.5896 342.361 70.2123 332.729C80.9551 310.344 84.6641 294.244 85.8827 288.953C87.1659 283.383 89.7912 269.605 86.4619 262.002C85.696 260.253 83.315 256.283 77.7752 257.193C72.8119 258.009 67.6747 263.446 65.9868 265.232C59.7356 271.848 49.9371 285.337 38.749 312.031L38.7471 312.036C36.042 318.899 28.8558 337.13 27.1862 353.64C25.5063 370.251 30.8959 372.81 32.6669 373.651L32.7042 373.667C33.5063 373.987 34.3567 374.169 35.2194 374.205ZM79.6832 257.556C83.5978 257.727 85.3861 260.76 86.0155 262.198C89.2862 269.667 86.68 283.321 85.4076 288.844C84.1918 294.122 80.4921 310.182 69.7724 332.518C65.1639 342.121 57.7508 355.675 48.6063 365.712C44.4077 370.321 38.2732 375.366 32.8934 373.217C31.1822 372.406 26.0263 369.958 27.6712 353.689C29.3342 337.248 36.5007 319.065 39.1997 312.217C50.3589 285.593 60.1184 272.154 66.3402 265.568C68.0015 263.81 73.0535 258.464 77.8548 257.675C78.5102 257.567 79.119 257.532 79.6832 257.556Z" fill="#111111"/>
<path d="M50.3913 321.999L121.776 358.609C121.875 358.66 121.982 358.695 122.097 358.713C124.296 359.062 128.578 353.194 131.663 345.608C134.657 338.245 135.422 331.968 133.454 331.287L57.6383 305.044C58.8595 305.467 58.3849 309.362 56.5268 313.931C54.6126 318.639 51.9548 322.28 50.5906 322.064C50.5191 322.052 50.4526 322.031 50.3913 321.999Z" fill="#B0C3FF"/>
<path d="M122.224 358.97C124.855 359.085 129.166 352.398 131.89 345.7C134.37 339.6 135.39 334.076 134.427 331.952C134.217 331.491 133.917 331.189 133.535 331.057L57.7189 304.814C57.6885 304.803 57.6561 304.798 57.6237 304.799C57.5912 304.801 57.5594 304.809 57.5301 304.822C57.5007 304.836 57.4745 304.856 57.4528 304.88C57.4311 304.904 57.4145 304.932 57.4038 304.963C57.3932 304.994 57.3888 305.026 57.3909 305.059C57.393 305.091 57.4015 305.123 57.416 305.152C57.4305 305.181 57.4506 305.207 57.4752 305.228C57.4998 305.249 57.5284 305.265 57.5592 305.275C57.69 305.32 57.7987 305.437 57.8822 305.621C58.4292 306.826 57.7792 310.206 56.3019 313.84C54.3024 318.757 51.7158 321.986 50.6296 321.823C50.5841 321.816 50.5429 321.802 50.5035 321.782C50.446 321.752 50.3791 321.747 50.3175 321.767C50.2559 321.787 50.2048 321.83 50.1753 321.888C50.1458 321.945 50.1404 322.012 50.1602 322.074C50.18 322.135 50.2235 322.186 50.2811 322.216L121.666 358.826C121.789 358.889 121.922 358.932 122.06 358.954C122.114 358.962 122.169 358.968 122.224 358.97ZM58.3833 305.56L133.376 331.518C133.627 331.605 133.831 331.818 133.983 332.154C134.88 334.131 133.834 339.626 131.439 345.516C128.141 353.625 123.966 358.773 122.136 358.472C122.05 358.459 121.967 358.432 121.889 358.392L51.2639 322.172C52.668 321.536 54.8217 318.776 56.7539 314.023C58.2502 310.343 58.8907 306.99 58.3833 305.56Z" fill="#111111"/>
<path d="M49.7327 312.193C53.2783 303.734 56.5584 304.72 57.6363 305.044C58.8596 305.464 58.3854 309.36 56.5265 313.931C54.6123 318.639 51.9545 322.28 50.5902 322.063C50.5182 322.052 50.4514 322.03 50.3893 321.998C47.8803 320.645 47.6655 317.437 49.7327 312.193Z" fill="#B0C3FF"/>
<path d="M50.6462 322.313C51.9666 322.371 54.5081 319.54 56.7514 314.023C58.3007 310.213 58.9323 306.754 58.3232 305.417C58.182 305.106 57.9771 304.903 57.7144 304.813C56.5761 304.47 53.1375 303.436 49.5069 312.099L49.505 312.104C47.3843 317.483 47.6355 320.79 50.2723 322.212C50.3883 322.272 50.5158 322.307 50.6462 322.313ZM56.5531 305.084C56.986 305.103 57.3305 305.206 57.5654 305.277C57.6873 305.319 57.7962 305.435 57.8798 305.619C58.428 306.823 57.7783 310.204 56.3001 313.839C54.3006 318.757 51.714 321.985 50.6278 321.823C50.5835 321.816 50.5406 321.802 50.5007 321.782C48.1241 320.499 47.9455 317.392 49.9584 312.285C52.6264 305.919 55.0933 305.02 56.5531 305.084Z" fill="#111111"/>
<path d="M48.9606 318.09C48.1399 317.739 48.5525 314.932 49.8822 311.819C51.2119 308.706 52.9551 306.466 53.7758 306.817C54.5964 307.167 54.1838 309.975 52.8541 313.088C51.5244 316.201 49.7812 318.44 48.9606 318.09Z" fill="white"/>
<path d="M49.1143 318.368C50.307 318.42 52.1171 315.577 53.2438 312.806C54.3243 310.149 54.7262 307.789 54.2436 306.935C54.0879 306.658 53.872 306.572 53.7181 306.547C52.5214 306.355 50.66 309.269 49.5084 312.102C48.4279 314.759 48.0259 317.118 48.5086 317.973C48.6643 318.249 48.8802 318.336 49.0341 318.36C49.0607 318.364 49.0874 318.367 49.1143 318.368ZM53.6106 307.025C53.6213 307.026 53.6318 307.027 53.642 307.028C53.6868 307.035 53.7539 307.058 53.8189 307.174C54.1625 307.782 53.92 309.849 52.7924 312.622C51.4102 316.021 49.7273 317.972 49.1107 317.878C49.0659 317.871 48.9988 317.848 48.9337 317.733C48.5902 317.125 48.8327 315.058 49.9602 312.285C51.3193 308.942 52.9794 306.998 53.6106 307.025Z" fill="#111111"/>
<path d="M75.1615 319.044C84.2936 296.586 88.0816 276.734 85.5761 267.982C85.9723 269.366 85.9723 269.366 85.5761 267.982C95.4783 302.231 123.974 318.488 134.702 324.608C135.199 324.884 135.557 325.437 135.783 326.224C136.742 329.577 135.291 337.181 131.793 345.783C127.912 355.328 122.755 363.042 119.281 364.871C118.651 365.203 118.076 365.341 117.575 365.262C117.496 365.249 117.421 365.232 117.348 365.209C112.662 363.777 106.262 361.97 98.3062 360.693C68.5706 355.919 49.6301 365.331 42.4982 368.875C51.567 364.098 65.0298 343.96 75.1615 319.044Z" fill="#B0C3FF"/>
<path d="M42.4878 369.119C42.5289 369.121 42.5697 369.112 42.6065 369.094C49.7172 365.56 68.6063 356.173 98.2675 360.934C106.21 362.209 112.599 364.013 117.277 365.442C117.361 365.468 117.448 365.488 117.536 365.502C118.081 365.59 118.707 365.449 119.395 365.087C123.001 363.188 128.192 355.288 132.019 345.875C135.457 337.421 137.026 329.681 136.017 326.157C135.769 325.291 135.367 324.698 134.821 324.395C124.119 318.29 95.6854 302.069 85.8106 267.915C85.7983 267.872 85.7743 267.833 85.7413 267.803L85.7403 267.802L85.7396 267.801L85.7394 267.801L85.7387 267.8L85.7377 267.8L85.7368 267.799L85.7359 267.798L85.7352 267.797L85.7349 267.797L85.7342 267.797L85.734 267.796L85.7333 267.796L85.733 267.796C85.7328 267.795 85.7328 267.795 85.7321 267.795C85.7316 267.795 85.7319 267.794 85.7312 267.794C85.7307 267.794 85.7309 267.793 85.7302 267.793C85.7295 267.793 85.7298 267.793 85.7293 267.792L85.7283 267.792L85.7274 267.791C85.7271 267.791 85.7271 267.791 85.7264 267.79L85.726 267.79L85.7255 267.789L85.7245 267.789L85.7243 267.789C85.724 267.788 85.7237 267.788 85.7234 267.788L85.7224 267.787C85.7219 267.787 85.7215 267.787 85.7215 267.786L85.7205 267.786C85.7201 267.786 85.7193 267.786 85.7196 267.785L85.7186 267.784L85.7177 267.784L85.7167 267.783L85.7158 267.782L85.7149 267.782L85.7139 267.781C85.7139 267.781 85.7142 267.781 85.7127 267.78C85.6866 267.762 85.6572 267.75 85.6262 267.743C85.6257 267.743 85.6252 267.743 85.6248 267.743L85.6236 267.743C85.6231 267.743 85.6227 267.743 85.6223 267.742L85.6209 267.742C85.6209 267.742 85.6199 267.742 85.6194 267.742C85.5626 267.732 85.5037 267.742 85.4537 267.771C85.4037 267.8 85.3656 267.845 85.3461 267.9L85.3455 267.901L85.3452 267.902L85.345 267.902L85.3447 267.904L85.3441 267.905C85.3436 267.906 85.3435 267.907 85.3435 267.907L85.3432 267.908C85.3427 267.909 85.343 267.909 85.3427 267.91C85.3427 267.91 85.3426 267.911 85.3421 267.911L85.3418 267.912L85.3416 267.913L85.3412 267.915C85.3407 267.915 85.3407 267.916 85.3407 267.916L85.3404 267.917L85.3401 267.919L85.3395 267.92L85.3392 267.922L85.3389 267.923L85.3386 267.925C85.3381 267.925 85.3386 267.926 85.3381 267.926C85.338 267.926 85.3379 267.927 85.3378 267.927L85.3375 267.929L85.3372 267.93L85.3368 267.932L85.3365 267.933L85.3346 267.943L85.3323 267.962L85.332 267.964L85.3312 267.982L85.3315 267.982C85.3313 268.005 85.3345 268.028 85.341 268.05L85.3437 268.06C86.5771 272.38 86.2833 279.388 84.4932 288.326C82.6545 297.506 79.3493 308.097 74.9352 318.953C65.0145 343.35 51.6289 363.79 42.3837 368.661C42.3363 368.686 42.2985 368.726 42.2761 368.774C42.2536 368.823 42.2479 368.878 42.2598 368.93C42.2716 368.982 42.3004 369.029 42.3416 369.063C42.3828 369.097 42.4342 369.117 42.4878 369.119ZM86.3416 359.218C66.7233 358.364 53.0133 363.639 45.612 367.094C54.6813 359.91 66.4508 341.114 75.3876 319.136C83.2681 299.756 87.3814 281.842 86.4609 271.618C97.2648 303.531 124.21 318.903 134.581 324.82C135.013 325.059 135.337 325.554 135.548 326.291C136.514 329.664 134.914 337.461 131.568 345.691C127.78 355.007 122.68 362.806 119.168 364.656C118.575 364.967 118.052 365.091 117.613 365.021C117.547 365.01 117.482 364.995 117.419 364.976C112.726 363.542 106.317 361.732 98.3446 360.452C94.1267 359.775 90.1237 359.383 86.3416 359.218Z" fill="#111111"/>
<path d="M119.053 368.185C119.185 368.241 119.324 368.281 119.467 368.303C123.039 368.87 129.999 359.336 135.011 347.008C139.819 335.185 141.09 325.086 138.033 323.781C138.033 323.781 172.484 338.455 172.951 338.71C173.524 339.015 174.476 339.617 175.181 341.056C178.066 346.941 172.821 361.437 168.838 369.193C163.366 379.849 158.341 384.502 153.897 383.041C153.058 382.792 119.053 368.185 119.053 368.185Z" fill="#3658C1"/>
<path d="M155.278 383.543C159.472 383.725 164.099 378.949 169.052 369.304C173.057 361.507 178.32 346.914 175.397 340.949C174.677 339.48 173.72 338.845 173.062 338.494C172.592 338.238 139.536 324.158 138.125 323.557L138.125 323.556C138.096 323.544 138.064 323.537 138.032 323.537C138 323.536 137.968 323.542 137.939 323.554C137.909 323.566 137.882 323.584 137.859 323.606C137.836 323.629 137.818 323.655 137.805 323.685C137.793 323.714 137.786 323.746 137.786 323.778C137.785 323.81 137.791 323.842 137.803 323.871C137.815 323.901 137.833 323.928 137.855 323.951C137.878 323.974 137.904 323.992 137.934 324.005C140.83 325.242 139.416 335.52 134.782 346.916C129.902 358.918 122.914 368.599 119.501 368.063C119.379 368.043 119.259 368.009 119.145 367.961C119.085 367.935 119.018 367.935 118.958 367.959C118.898 367.983 118.85 368.03 118.824 368.089C118.799 368.149 118.798 368.216 118.822 368.276C118.846 368.336 118.893 368.384 118.953 368.409C120.342 369.006 152.981 383.025 153.824 383.275C154.302 383.432 154.787 383.522 155.278 383.543ZM139.169 324.531C151.295 329.697 172.379 338.69 172.832 338.925C173.43 339.243 174.301 339.822 174.959 341.163C176.21 343.717 175.998 348.28 174.346 354.359C173.056 359.106 170.915 364.61 168.618 369.082C163.211 379.609 158.286 384.229 153.969 382.81C153.332 382.621 132.411 373.659 120.389 368.496C124.268 367.594 130.517 358.698 135.233 347.101C139.489 336.636 140.984 327.619 139.169 324.531Z" fill="#111111"/>
<path d="M30.2639 338.3C32.7969 327.792 37.1244 316.813 38.9723 312.125C41.7953 305.39 50.3858 284.894 62.3046 269.92C70.4757 259.654 76.9757 255.705 82.1764 257.847C86.4827 259.62 88.4469 265.869 87.7077 275.442C86.5058 291.005 80.4049 307.484 77.7996 314.521C68.8437 338.711 51.6551 367.99 39.502 373.112C32.4194 376.097 27.2169 371.109 27.1313 361.251C27.0772 355.02 27.5604 349.517 30.2639 338.3ZM34.1747 369.423C42.7709 370.786 59.5174 347.844 71.5792 318.182C83.6409 288.519 86.4502 263.368 77.8541 262.005C69.2579 260.642 52.5114 283.584 40.4496 313.246C28.3879 342.909 25.5784 368.06 34.1747 369.423Z" fill="white"/>
<path d="M35.2546 374.21C36.6132 374.269 38.0732 373.979 39.5966 373.337C51.8096 368.19 69.0546 338.844 78.0281 314.606C80.6373 307.558 86.7465 291.057 87.9506 275.461C88.6989 265.773 86.6809 259.438 82.2691 257.621C76.9549 255.432 70.3611 259.406 62.1139 269.767C50.1735 284.768 41.5736 305.288 38.7475 312.031C36.8958 316.728 32.564 327.717 30.0268 338.243C27.3174 349.483 26.8331 355.002 26.8873 361.253C26.9362 366.886 28.6149 371.074 31.6142 373.045C32.7071 373.764 33.933 374.153 35.2546 374.21ZM79.6435 257.533C80.489 257.57 81.3015 257.75 82.0835 258.072C86.2838 259.801 88.1947 265.964 87.4646 275.423C86.2651 290.951 80.1728 307.408 77.5713 314.435C68.6326 338.579 51.4998 367.791 39.4075 372.888C36.5586 374.088 33.9569 374.002 31.8821 372.638C29.0646 370.786 27.4218 366.635 27.3754 361.249C27.3214 355.037 27.8034 349.549 30.5012 338.357C33.0304 327.865 37.3534 316.897 39.1996 312.214C42.0172 305.492 50.5977 285.019 62.4958 270.071C69.3455 261.465 74.9878 257.33 79.6435 257.533ZM34.6906 369.719C38.9238 369.903 44.9555 364.921 51.7741 355.58C58.8503 345.887 65.9641 332.637 71.8047 318.273C81.665 294.025 85.6086 271.875 81.3956 264.409C80.5363 262.886 79.3576 261.997 77.8921 261.764C73.642 261.087 67.3763 266.091 60.2544 275.847C53.1783 285.541 46.0645 298.79 40.2239 313.154C30.3636 337.403 26.4197 359.552 30.633 367.018C31.4922 368.541 32.671 369.431 34.1365 369.663C34.3173 369.692 34.5025 369.71 34.6906 369.719ZM77.3253 262.197C77.4927 262.204 77.6555 262.22 77.8157 262.245C79.1266 262.453 80.1883 263.262 80.9707 264.649C85.1158 271.994 81.161 293.969 71.3531 318.09C65.5267 332.418 58.4336 345.63 51.3803 355.293C44.7498 364.376 38.717 369.405 34.703 369.231C34.5357 369.224 34.3728 369.207 34.2126 369.182C32.9017 368.974 31.84 368.166 31.0576 366.779C26.9125 359.434 30.8674 337.458 40.6752 313.338C46.5016 299.01 53.5947 285.797 60.6481 276.135C67.2786 267.051 73.3116 262.022 77.3253 262.197Z" fill="#111111"/>
<path d="M143.025 378.528L127.653 370.081L124.253 375.311L116.844 378.407C116.107 378.717 115.724 379.554 115.97 380.335L117.604 385.56L102.821 410.122L98.7251 411.64C96.943 412.003 95.9862 414.004 96.8062 415.665C99.1908 420.5 100.772 426.448 103.682 429.076C104.072 429.429 104.513 429.738 104.988 429.999C107.774 431.53 111.735 431.426 113.429 429.02L143.025 378.528Z" fill="#B0C3FF"/>
<path d="M108.635 431.254C110.601 431.339 112.527 430.724 113.628 429.159L143.236 378.65C143.252 378.622 143.263 378.591 143.267 378.559C143.271 378.527 143.269 378.494 143.26 378.462C143.251 378.431 143.237 378.402 143.216 378.376C143.196 378.35 143.171 378.329 143.143 378.314L127.77 369.867C127.716 369.837 127.653 369.829 127.593 369.844C127.534 369.859 127.482 369.896 127.448 369.948L124.09 375.114L116.75 378.182C115.901 378.538 115.456 379.516 115.737 380.408L117.339 385.528L102.656 409.922L98.6575 411.404C97.7528 411.594 96.998 412.186 96.5841 413.03C96.3732 413.457 96.2637 413.926 96.2643 414.402C96.2648 414.878 96.3755 415.347 96.5875 415.773C97.3445 417.307 98.0265 418.97 98.6863 420.579C100.131 424.102 101.495 427.429 103.518 429.255C103.931 429.626 104.385 429.947 104.871 430.212C105.986 430.825 107.32 431.196 108.635 431.254ZM142.688 378.62L113.219 428.895C111.598 431.194 107.712 431.216 105.106 429.785C104.638 429.527 104.214 429.228 103.846 428.894C101.904 427.141 100.561 423.864 99.1375 420.394C98.4747 418.778 97.7894 417.106 97.025 415.557C96.8463 415.198 96.753 414.802 96.7524 414.401C96.7519 414 96.8441 413.604 97.0219 413.245C97.3717 412.532 98.01 412.033 98.7738 411.878C98.7861 411.876 98.7982 411.872 98.8099 411.868L102.906 410.35C102.958 410.33 103.002 410.294 103.03 410.247L117.814 385.685C117.831 385.656 117.843 385.623 117.847 385.589C117.851 385.554 117.848 385.52 117.837 385.487L116.202 380.261C115.996 379.607 116.32 378.891 116.939 378.632L124.348 375.535C124.393 375.516 124.431 375.484 124.458 375.443L127.734 370.403L142.688 378.62Z" fill="#111111"/>
<path d="M92.5823 413.615C92.7488 412.762 93.1823 411.977 93.819 411.39C94.3428 410.907 94.9889 410.576 95.6872 410.434L99.2161 409.115L113.491 385.399L112.024 380.711C111.877 380.242 111.857 379.761 111.945 379.309C112.059 378.722 112.357 378.186 112.796 377.78C113.028 377.567 113.295 377.395 113.586 377.273L120.656 374.318L123.422 370.061L127.652 370.08L124.253 375.31L116.844 378.407C116.106 378.716 115.723 379.553 115.969 380.334L117.604 385.559L102.82 410.121L98.7245 411.639C97.0081 411.989 96.0573 413.858 96.7221 415.479C98.371 418.694 100.93 426.776 103.681 429.075C106.307 431.475 111.445 431.851 113.428 429.019C111.867 431.587 109.019 432.602 106.128 432.234C97.7125 431.163 96.3632 423.034 92.9323 416.221C92.5325 415.414 92.4095 414.499 92.5823 413.615Z" fill="white"/>
<path d="M106.885 432.544C109.761 432.669 112.247 431.432 113.637 429.146C113.67 429.092 113.681 429.027 113.667 428.965C113.653 428.903 113.615 428.849 113.562 428.814C113.509 428.78 113.444 428.767 113.382 428.779C113.32 428.792 113.265 428.827 113.229 428.88C112.513 429.901 111.281 430.557 109.759 430.725C107.637 430.959 105.318 430.24 103.845 428.895C101.952 427.313 100.119 422.858 98.6453 419.278C97.996 417.699 97.4351 416.336 96.9391 415.369C96.6516 414.666 96.694 413.856 97.0631 413.164C97.42 412.496 98.043 412.027 98.7729 411.879C98.7852 411.876 98.7972 411.873 98.809 411.869L102.905 410.35C102.957 410.331 103.001 410.295 103.029 410.247L117.812 385.686C117.83 385.656 117.842 385.624 117.846 385.589C117.85 385.555 117.847 385.52 117.836 385.488L116.201 380.262C115.995 379.608 116.319 378.892 116.938 378.632L124.347 375.536C124.392 375.517 124.43 375.485 124.457 375.444L127.856 370.214C127.88 370.177 127.894 370.135 127.896 370.091C127.897 370.047 127.887 370.004 127.867 369.965C127.824 369.887 127.741 369.834 127.653 369.837L123.423 369.819C123.34 369.818 123.263 369.86 123.218 369.93L120.492 374.123L113.492 377.049C113.174 377.182 112.883 377.369 112.63 377.602C112.154 378.044 111.83 378.625 111.705 379.263C111.607 379.77 111.637 380.293 111.791 380.785L113.225 385.368L99.0505 408.917L95.6186 410.2C94.8843 410.354 94.2053 410.704 93.6532 411.211C92.9848 411.827 92.519 412.665 92.3422 413.569C92.1587 414.51 92.287 415.464 92.7136 416.329C93.4239 417.74 94.0522 419.225 94.6597 420.661C97.0418 426.292 99.292 431.611 106.097 432.476C106.359 432.51 106.621 432.532 106.885 432.544ZM111.398 430.837C109.979 431.824 108.151 432.246 106.158 431.993C99.6315 431.163 97.4346 425.969 95.1085 420.471C94.498 419.028 93.8668 417.535 93.15 416.112C92.7731 415.354 92.6574 414.493 92.8209 413.662C92.9779 412.859 93.391 412.116 93.9837 411.57C94.4755 411.117 95.0812 410.807 95.7359 410.673C95.7482 410.671 95.7602 410.667 95.772 410.663L99.3011 409.344C99.3527 409.324 99.3963 409.288 99.4247 409.241L113.699 385.525C113.717 385.495 113.728 385.463 113.732 385.428C113.736 385.394 113.733 385.359 113.723 385.327L112.256 380.639C112.126 380.224 112.101 379.781 112.184 379.356C112.289 378.821 112.561 378.332 112.961 377.96C113.172 377.766 113.415 377.61 113.68 377.499L120.75 374.544C120.795 374.525 120.833 374.493 120.86 374.452L123.555 370.307L127.205 370.323L124.09 375.115L116.75 378.183C115.901 378.539 115.456 379.516 115.737 380.408L117.339 385.529L102.656 409.923L98.6576 411.405C97.793 411.587 97.056 412.144 96.6335 412.935C96.4173 413.337 96.293 413.782 96.2694 414.238C96.2458 414.694 96.3235 415.15 96.497 415.573C96.9925 416.541 97.5768 417.96 98.195 419.463C99.6886 423.093 101.547 427.611 103.525 429.263C105.088 430.691 107.559 431.459 109.813 431.21C110.38 431.147 110.912 431.021 111.398 430.837Z" fill="#111111"/>
</g>
<g clip-path="url(#clip4_3897_35855)">
<path d="M180.641 124.084L173.249 127.585L172.6 131.976L179.992 128.475C183.777 126.682 186.137 123.362 186.675 119.719L187.325 115.328C186.786 118.971 184.426 122.291 180.641 124.084Z" fill="#B0C3FF"/>
<path d="M172.582 132.188C172.553 132.185 172.526 132.177 172.5 132.163C172.475 132.149 172.452 132.13 172.435 132.108C172.417 132.085 172.404 132.059 172.396 132.031C172.389 132.003 172.387 131.974 172.391 131.946L173.04 127.555C173.051 127.485 173.095 127.424 173.159 127.394L180.551 123.893C184.116 122.205 186.57 118.992 187.116 115.298C187.125 115.243 187.155 115.193 187.2 115.16C187.245 115.126 187.301 115.112 187.357 115.12C187.384 115.124 187.411 115.133 187.435 115.147C187.458 115.162 187.479 115.181 187.496 115.203C187.512 115.225 187.524 115.251 187.531 115.278C187.538 115.305 187.539 115.333 187.535 115.36L187.535 115.364L186.886 119.752C186.319 123.586 183.776 126.919 180.083 128.668L172.691 132.168C172.657 132.184 172.62 132.191 172.582 132.188ZM173.443 127.728L172.868 131.615L179.902 128.284C183.466 126.596 185.92 123.383 186.467 119.689L186.671 118.311C185.524 120.865 183.436 122.995 180.732 124.276L173.443 127.728Z" fill="#111111"/>
<path d="M171.502 138.658C171.168 138.814 170.803 138.889 170.435 138.875C170.067 138.862 169.708 138.76 169.387 138.58L160.533 133.609L159.883 138L168.738 142.971C169.058 143.151 169.418 143.253 169.786 143.266C170.154 143.28 170.519 143.205 170.853 143.049C171.437 142.772 171.881 142.25 171.98 141.579L172.629 137.188C172.53 137.859 172.086 138.381 171.502 138.658Z" fill="#B0C3FF"/>
<path d="M169.652 143.469C169.299 143.438 168.951 143.333 168.632 143.156L159.777 138.184C159.74 138.163 159.71 138.131 159.691 138.092C159.672 138.054 159.665 138.01 159.671 137.968L160.32 133.577C160.325 133.543 160.339 133.511 160.359 133.483C160.379 133.455 160.406 133.433 160.437 133.418C160.467 133.403 160.501 133.395 160.536 133.396C160.57 133.397 160.603 133.406 160.633 133.423L169.487 138.394C170.083 138.726 170.801 138.753 171.408 138.465C171.965 138.202 172.332 137.725 172.417 137.156C172.425 137.101 172.456 137.051 172.501 137.018C172.545 136.984 172.602 136.97 172.657 136.977C172.685 136.982 172.711 136.991 172.735 137.005C172.759 137.02 172.78 137.038 172.796 137.061C172.813 137.083 172.825 137.109 172.831 137.136C172.838 137.163 172.84 137.191 172.835 137.218L172.186 141.609C172.081 142.321 171.627 142.915 170.94 143.24C170.539 143.429 170.094 143.508 169.652 143.469ZM160.111 137.886L168.838 142.785C169.435 143.117 170.153 143.144 170.759 142.856C171.316 142.593 171.683 142.116 171.768 141.547L172.232 138.403C172.045 138.587 171.828 138.737 171.59 138.848C170.859 139.194 169.997 139.162 169.281 138.764L160.694 133.943L160.111 137.886Z" fill="#111111"/>
<path d="M125.693 150.109C119.421 153.08 111.607 150.732 108.247 144.856L88.7551 110.779C87.4234 108.451 86.9912 105.919 87.3451 103.527L86.6959 107.918C86.3421 110.31 86.7742 112.842 88.1059 115.17L107.598 149.248C110.958 155.123 118.771 157.472 125.044 154.501L159.884 137.999L160.534 133.608L125.693 150.109Z" fill="#B0C3FF"/>
<path d="M118.043 155.941C113.705 155.562 109.612 153.2 107.411 149.353L87.9196 115.275C86.6055 112.978 86.1088 110.423 86.4839 107.887L87.133 103.496C87.137 103.468 87.1464 103.442 87.1607 103.418C87.1749 103.394 87.1938 103.373 87.2162 103.356C87.2385 103.34 87.264 103.328 87.291 103.321C87.318 103.314 87.3461 103.313 87.3736 103.317C87.4011 103.321 87.4276 103.331 87.4515 103.345C87.4754 103.359 87.4962 103.378 87.5128 103.4C87.5294 103.423 87.5414 103.448 87.5481 103.475C87.5548 103.502 87.5561 103.53 87.552 103.558C87.1912 105.999 87.6697 108.459 88.9363 110.674L108.428 144.752C111.729 150.522 119.432 152.84 125.6 149.918L160.44 133.417C160.475 133.401 160.513 133.394 160.551 133.398C160.59 133.402 160.626 133.416 160.657 133.438C160.688 133.461 160.712 133.492 160.726 133.528C160.741 133.563 160.746 133.602 160.74 133.64L160.091 138.031C160.081 138.101 160.036 138.161 159.972 138.191L125.133 154.693C122.878 155.76 120.423 156.149 118.043 155.941ZM87.1047 106.583L86.9028 107.949C86.542 110.39 87.0206 112.85 88.2872 115.065L107.779 149.142C111.079 154.913 118.783 157.231 124.951 154.309L159.689 137.856L160.263 133.969L125.781 150.301C119.418 153.315 111.468 150.92 108.06 144.962L88.5688 110.884C87.7894 109.522 87.2978 108.069 87.1047 106.583Z" fill="#111111"/>
<path d="M148.985 68.7363C155.258 65.7654 163.061 68.1179 166.422 73.9936L185.914 108.071C189.275 113.947 186.916 121.113 180.643 124.084L173.25 127.585L172.646 137.037C172.595 137.78 172.13 138.361 171.502 138.658C171.169 138.814 170.803 138.888 170.435 138.875C170.067 138.861 169.708 138.76 169.387 138.58L160.533 133.609L125.693 150.11C119.42 153.081 111.607 150.732 108.246 144.857L88.7546 110.779C85.3939 104.904 87.7622 97.7333 94.0352 94.7623L148.985 68.7363Z" fill="white"/>
<path d="M118.694 151.55C114.356 151.17 110.263 148.809 108.062 144.962L88.5706 110.884C86.9462 108.044 86.577 104.808 87.5309 101.77C88.5209 98.6169 90.7986 96.06 93.9442 94.57L148.894 68.5443C155.252 65.5327 163.198 67.9297 166.606 73.8879L186.098 107.966C187.723 110.808 188.094 114.046 187.139 117.085C186.151 120.233 183.876 122.787 180.733 124.275L173.454 127.723L172.857 137.05C172.804 137.827 172.331 138.499 171.593 138.849C170.863 139.194 169.999 139.163 169.284 138.765L160.524 133.847L125.783 150.301C123.529 151.369 121.075 151.758 118.694 151.55ZM148.985 68.7359L149.075 68.9274L94.1254 94.9531C91.0878 96.3919 88.8893 98.8579 87.9351 101.897C87.0171 104.82 87.3732 107.937 88.9382 110.673L108.43 144.751C111.731 150.521 119.434 152.839 125.602 149.918L160.442 133.417C160.473 133.402 160.506 133.395 160.54 133.396C160.574 133.398 160.607 133.407 160.636 133.424L169.49 138.395C170.087 138.726 170.805 138.753 171.411 138.466C172.009 138.182 172.391 137.643 172.434 137.022L173.039 127.572C173.041 127.534 173.054 127.497 173.075 127.466C173.096 127.435 173.125 127.41 173.159 127.393L180.551 123.892C183.586 122.455 185.782 119.992 186.735 116.958C187.653 114.034 187.296 110.915 185.73 108.176L166.238 74.0985C162.938 68.3281 155.238 66.0087 149.075 68.9276L148.985 68.7359Z" fill="#111111"/>
<path d="M117.61 114.48C115.47 115.493 114.661 117.949 115.807 119.953C116.958 121.965 119.628 122.763 121.768 121.75C123.916 120.733 124.72 118.289 123.569 116.276C122.423 114.273 119.757 113.463 117.61 114.48Z" fill="#111111"/>
<path d="M119.37 122.38C117.843 122.246 116.401 121.414 115.626 120.058C115.052 119.055 114.922 117.909 115.26 116.832C115.61 115.716 116.413 114.813 117.521 114.288C119.759 113.229 122.555 114.073 123.755 116.171C124.332 117.179 124.463 118.326 124.126 119.4C123.776 120.513 122.972 121.415 121.861 121.941C121.069 122.317 120.206 122.453 119.37 122.38ZM117.702 114.672C116.702 115.145 115.979 115.957 115.664 116.959C115.362 117.922 115.479 118.948 115.993 119.848C117.086 121.758 119.637 122.526 121.679 121.558C122.683 121.083 123.408 120.272 123.721 119.273C124.023 118.313 123.904 117.286 123.387 116.382C122.294 114.472 119.744 113.704 117.702 114.672ZM135.555 105.981C133.416 106.995 132.607 109.451 133.753 111.454C134.904 113.467 137.574 114.265 139.713 113.252C141.861 112.234 142.666 109.79 141.515 107.778C140.369 105.775 137.703 104.964 135.555 105.981Z" fill="#111111"/>
<path d="M137.311 113.881C135.784 113.748 134.342 112.916 133.567 111.559C132.993 110.556 132.863 109.41 133.202 108.332C133.552 107.217 134.355 106.314 135.462 105.79C137.7 104.73 140.496 105.574 141.696 107.672C142.273 108.68 142.404 109.827 142.067 110.901C141.718 112.014 140.913 112.916 139.801 113.443C139.009 113.818 138.147 113.954 137.311 113.881ZM137.92 105.772C137.155 105.705 136.367 105.83 135.643 106.173C134.644 106.646 133.92 107.458 133.605 108.459C133.303 109.423 133.42 110.449 133.934 111.349C135.027 113.259 137.577 114.027 139.62 113.059C140.623 112.584 141.349 111.772 141.662 110.774C141.964 109.813 141.845 108.787 141.328 107.883C140.623 106.65 139.311 105.893 137.92 105.772ZM153.496 97.4824C151.357 98.4955 150.548 100.952 151.694 102.956C152.844 104.968 155.515 105.766 157.654 104.753C159.802 103.735 160.607 101.291 159.456 99.279C158.31 97.2757 155.644 96.4651 153.496 97.4824Z" fill="#111111"/>
<path d="M155.257 105.382C153.73 105.249 152.288 104.417 151.512 103.061C150.939 102.057 150.809 100.911 151.147 99.8339C151.497 98.7182 152.3 97.8151 153.408 97.2906C155.646 96.2309 158.442 97.0751 159.643 99.1735C160.219 100.181 160.35 101.328 160.013 102.402C159.663 103.515 158.859 104.417 157.747 104.944C156.955 105.319 156.093 105.456 155.257 105.382ZM155.866 97.2728C155.101 97.2059 154.313 97.3309 153.589 97.6739C152.589 98.1472 151.866 98.9596 151.551 99.9612C151.249 100.924 151.365 101.951 151.88 102.85C152.972 104.761 155.523 105.528 157.566 104.561C158.569 104.085 159.295 103.274 159.608 102.275C159.91 101.315 159.791 100.288 159.274 99.3841C158.57 98.1513 157.257 97.3945 155.866 97.2728Z" fill="#111111"/>
</g>
<defs>
<linearGradient id="paint0_linear_3897_35855" x1="430.874" y1="257.038" x2="469.366" y2="227.149" gradientUnits="userSpaceOnUse">
<stop offset="0.189" stop-color="#3658C1"/>
<stop offset="0.593" stop-color="#B0C3FF"/>
<stop offset="1" stop-color="#3658C1"/>
</linearGradient>
<linearGradient id="paint1_linear_3897_35855" x1="195.532" y1="118.039" x2="317.149" y2="443.935" gradientUnits="userSpaceOnUse">
<stop stop-color="#111111"/>
<stop offset="0.31" stop-color="#3658C1"/>
<stop offset="0.761" stop-color="#3658C1"/>
<stop offset="1" stop-color="#111111"/>
</linearGradient>
<clipPath id="clip0_3897_35855">
<rect width="92.4692" height="98.8172" fill="white" transform="translate(367.336 185.573)"/>
</clipPath>
<clipPath id="clip1_3897_35855">
<rect width="268.732" height="364.375" fill="white" transform="translate(135.637 90.7764)"/>
</clipPath>
<clipPath id="clip2_3897_35855">
<rect width="169.703" height="254.766" fill="white" transform="translate(186.418 155.737)"/>
</clipPath>
<clipPath id="clip3_3897_35855">
<rect width="161.028" height="174.147" fill="white" transform="matrix(-0.999054 -0.0434906 -0.0434906 0.999054 192.246 261.947)"/>
</clipPath>
<clipPath id="clip4_3897_35855">
<rect width="101.356" height="91.6228" fill="white" transform="translate(90.5156 61.5664) rotate(4.99817)"/>
</clipPath>
</defs>
</svg>
