<svg width="20" height="20" viewBox="0 0 20 20" fill="none" xmlns="http://www.w3.org/2000/svg">
<path d="M2 8.66697C2 4.99297 4.99267 2.00031 8.66667 2.00031C12.3407 2.00031 15.3333 4.99297 15.3333 8.66697C15.3333 10.2646 14.766 11.7319 13.8242 12.8818L17.8047 16.8623C17.8687 16.9237 17.9198 16.9973 17.9549 17.0787C17.9901 17.1601 18.0087 17.2478 18.0096 17.3364C18.0105 17.4251 17.9937 17.5131 17.9602 17.5952C17.9267 17.6774 17.8771 17.752 17.8144 17.8147C17.7517 17.8774 17.6771 17.927 17.5949 17.9605C17.5128 17.994 17.4248 18.0108 17.3361 18.0099C17.2475 18.009 17.1598 17.9904 17.0784 17.9552C16.997 17.9201 16.9234 17.869 16.862 17.805L12.8815 13.8245C11.7316 14.7663 10.2643 15.3336 8.66667 15.3336C4.99266 15.3336 2 12.341 2 8.66697ZM3.33333 8.66697C3.33333 11.6204 5.71325 14.0003 8.66667 14.0003C11.6201 14.0003 14 11.6204 14 8.66697C14 5.71356 11.6201 3.33364 8.66667 3.33364C5.71325 3.33364 3.33333 5.71356 3.33333 8.66697Z" fill="#9C9C9C"/>
</svg>
