<svg width="19" height="19" viewBox="0 0 19 19" fill="none" xmlns="http://www.w3.org/2000/svg">
<path d="M14.7393 0.990235C14.5404 0.990481 14.3461 1.05 14.1813 1.16119C14.0164 1.27238 13.8885 1.43019 13.8137 1.61446C13.739 1.79873 13.7209 2.0011 13.7617 2.19571C13.8025 2.39032 13.9005 2.56834 14.043 2.70703L14.5898 3.25391C8.73829 3.34033 4 8.12836 4 14C3.99813 14.1325 4.02261 14.2641 4.07202 14.387C4.12143 14.51 4.1948 14.6219 4.28784 14.7163C4.38088 14.8107 4.49176 14.8856 4.61401 14.9368C4.73627 14.9879 4.86748 15.0142 5 15.0142C5.13252 15.0142 5.26373 14.9879 5.38599 14.9368C5.50824 14.8856 5.61912 14.8107 5.71216 14.7163C5.8052 14.6219 5.87857 14.51 5.92798 14.387C5.97739 14.2641 6.00187 14.1325 6 14C6 9.21377 9.81371 5.35136 14.5771 5.25879L14.043 5.79297C13.947 5.88511 13.8704 5.99548 13.8176 6.11761C13.7648 6.23974 13.7369 6.37117 13.7356 6.50422C13.7342 6.63726 13.7594 6.76923 13.8097 6.89241C13.86 7.01559 13.9344 7.12749 14.0284 7.22157C14.1225 7.31565 14.2344 7.39001 14.3576 7.4403C14.4808 7.49059 14.6127 7.5158 14.7458 7.51444C14.8788 7.51309 15.0103 7.4852 15.1324 7.43242C15.2545 7.37963 15.3649 7.30301 15.457 7.20703L17.6182 5.0459C17.7413 4.95236 17.8411 4.83154 17.9096 4.69293C17.9782 4.55433 18.0137 4.40171 18.0133 4.24708C18.0129 4.09244 17.9767 3.94 17.9074 3.80173C17.8382 3.66346 17.7379 3.54313 17.6143 3.4502L15.457 1.29297C15.3637 1.19706 15.2521 1.12084 15.1288 1.06884C15.0055 1.01684 14.8731 0.990112 14.7393 0.990235ZM3.25 1C1.46692 1 0 2.46692 0 4.25L0 15.75C0 17.5331 1.46692 19 3.25 19L14.75 19C16.5331 19 18 17.5331 18 15.75L18 12C18.0019 11.8675 17.9774 11.7359 17.928 11.613C17.8786 11.49 17.8052 11.3781 17.7122 11.2837C17.6191 11.1893 17.5082 11.1144 17.386 11.0632C17.2637 11.0121 17.1325 10.9858 17 10.9858C16.8675 10.9858 16.7363 11.0121 16.614 11.0632C16.4918 11.1144 16.3809 11.1893 16.2878 11.2837C16.1948 11.3781 16.1214 11.49 16.072 11.613C16.0226 11.7359 15.9981 11.8675 16 12V15.75C16 16.4519 15.4519 17 14.75 17L3.25 17C2.54808 17 2 16.4519 2 15.75L2 4.25C2 3.54808 2.54808 3 3.25 3L7 3C7.13251 3.00187 7.26407 2.97739 7.38704 2.92798C7.51001 2.87857 7.62193 2.80521 7.7163 2.71216C7.81067 2.61912 7.88561 2.50824 7.93676 2.38599C7.9879 2.26373 8.01424 2.13253 8.01424 2C8.01424 1.86748 7.9879 1.73627 7.93676 1.61401C7.88561 1.49176 7.81067 1.38088 7.7163 1.28784C7.62193 1.1948 7.51001 1.12144 7.38704 1.07202C7.26407 1.02261 7.13251 0.998126 7 1L3.25 1Z" fill="#64667B"/>
</svg>
