<svg width="48" height="48" viewBox="0 0 48 48" fill="none" xmlns="http://www.w3.org/2000/svg">
<rect width="48" height="48" rx="24" fill="#E6E9FD"/>
<path d="M34.3598 17.1525C34.2123 17 33.9853 16.9565 33.7918 17.0455L33.7098 17.083C33.6403 17.115 33.5708 17.147 33.5008 17.1785C33.7043 16.854 33.8658 16.507 33.9773 16.148C34.0393 15.95 33.9718 15.7335 33.8078 15.6055C33.6438 15.4775 33.4178 15.464 33.2403 15.5725C32.6698 15.919 32.1218 16.1685 31.5553 16.3425C30.7003 15.513 29.5358 15 28.2503 15C25.6268 15 23.5003 17.1265 23.5003 19.75C23.5003 19.7525 23.5003 19.8515 23.5003 20L23.0008 19.96C18.1393 19.385 16.7553 16.115 16.6978 15.974C16.6048 15.739 16.3998 15.5675 16.1523 15.516C15.9053 15.4635 15.6488 15.541 15.4698 15.7195C15.3708 15.819 14.5003 16.74 14.5003 18.5C14.5003 19.754 15.0593 20.771 15.7828 21.562C15.4458 21.3565 15.2493 21.19 15.2443 21.1855C15.0138 20.9845 14.6838 20.9425 14.4098 21.0815C14.1368 21.221 13.9758 21.5125 14.0033 21.818C14.0128 21.9235 14.2258 23.9245 16.5373 25.4355L16.1158 25.512C15.8603 25.5585 15.6468 25.734 15.5518 25.976C15.4573 26.2185 15.4943 26.492 15.6503 26.7C15.7028 26.7705 16.6793 28.04 18.7998 28.77C17.6673 29.1475 16.1113 29.5 14.2503 29.5C13.9563 29.5 13.6888 29.672 13.5673 29.94C13.4453 30.208 13.4918 30.5225 13.6858 30.7435C13.7663 30.836 15.7178 33 20.7503 33C29.1068 33 33.0003 25.2425 33.0003 20V19.75C33.0003 19.676 32.9923 19.6035 32.9893 19.5305C34.0353 18.5195 34.4288 17.761 34.4478 17.7235C34.5423 17.5335 34.5073 17.3045 34.3598 17.1525Z" fill="#7E87E3"/>
</svg>
