<svg width="22" height="18" viewBox="0 0 22 18" fill="none" xmlns="http://www.w3.org/2000/svg">
<path d="M21.3598 2.1525C21.2123 2 20.9853 1.9565 20.7918 2.0455L20.7098 2.083C20.6403 2.115 20.5708 2.147 20.5008 2.1785C20.7043 1.854 20.8658 1.507 20.9773 1.148C21.0393 0.95 20.9718 0.7335 20.8078 0.6055C20.6438 0.4775 20.4178 0.464 20.2403 0.5725C19.6698 0.919 19.1218 1.1685 18.5553 1.3425C17.7003 0.513 16.5358 0 15.2503 0C12.6268 0 10.5003 2.1265 10.5003 4.75C10.5003 4.7525 10.5003 4.8515 10.5003 5L10.0008 4.96C5.13928 4.385 3.75528 1.115 3.69778 0.974C3.60478 0.739 3.39978 0.5675 3.15228 0.516C2.90528 0.4635 2.64878 0.541 2.46978 0.7195C2.37078 0.819 1.50028 1.74 1.50028 3.5C1.50028 4.754 2.05928 5.771 2.78278 6.562C2.44578 6.3565 2.24928 6.19 2.24428 6.1855C2.01378 5.9845 1.68378 5.9425 1.40978 6.0815C1.13678 6.221 0.975781 6.5125 1.00328 6.818C1.01278 6.9235 1.22578 8.9245 3.53728 10.4355L3.11578 10.512C2.86028 10.5585 2.64678 10.734 2.55178 10.976C2.45728 11.2185 2.49428 11.492 2.65028 11.7C2.70278 11.7705 3.67928 13.04 5.79978 13.77C4.66728 14.1475 3.11128 14.5 1.25028 14.5C0.956281 14.5 0.688781 14.672 0.567281 14.94C0.445281 15.208 0.491781 15.5225 0.685781 15.7435C0.766281 15.836 2.71778 18 7.75028 18C16.1068 18 20.0003 10.2425 20.0003 5V4.75C20.0003 4.676 19.9923 4.6035 19.9893 4.5305C21.0353 3.5195 21.4288 2.761 21.4478 2.7235C21.5423 2.5335 21.5073 2.3045 21.3598 2.1525Z" fill="#64667B"/>
</svg>
